<?xml version="1.0" ?>

<!-- Uploaded to: SVG Repo, www.svgrepo.com, Generator: SVG Repo Mixer Tools -->
<svg width="800px" height="800px" viewBox="0 0 32 32" xmlns="http://www.w3.org/2000/svg">

<defs>

<style>.cls-1{fill:currentColor;}.cls-2{fill:currentColor;}</style>

</defs>

<title/>

<g id="Right">

<path class="cls-1" d="M20.53,15.15l-8-5A1,1,0,0,0,11,11V21a1,1,0,0,0,.52.87A.91.91,0,0,0,12,22a1,1,0,0,0,.53-.15l8-5a1,1,0,0,0,0-1.7Z"/>

<path class="cls-2" d="M21,16H11v5a1,1,0,0,0,.52.87A.91.91,0,0,0,12,22a1,1,0,0,0,.53-.15l8-5A1,1,0,0,0,21,16Z"/>

</g>

</svg>