<?xml version="1.0" encoding="iso-8859-1"?>
<!-- Uploaded to: SVG Repo, www.svgrepo.com, Generator: SVG Repo Mixer Tools -->
<svg height="800px" width="800px" version="1.1" id="Layer_1" xmlns="http://www.w3.org/2000/svg" xmlns:xlink="http://www.w3.org/1999/xlink" 
	 viewBox="0 0 512 512" xml:space="preserve">
<polygon style="fill:#72BEDE;" points="501.802,249.853 256.001,36.912 10.201,249.853 82.194,249.853 82.194,475.088 
	429.808,475.088 429.808,249.853 "/>
<path style="fill:#FFAD61;" d="M256.001,213.001L256.001,213.001c-42.927,0-77.726,34.8-77.726,77.726v183.634h155.452V290.727
	C333.727,247.799,298.928,213.001,256.001,213.001z"/>
<circle style="fill:#F2F2F2;" cx="287.322" cy="349.363" r="17.812"/>
<g>
	<path style="fill:#534741;" d="M508.479,242.144l-245.8-212.941c-3.833-3.321-9.524-3.321-13.357,0L3.522,242.144
		c-3.219,2.788-4.366,7.283-2.878,11.273c1.488,3.99,5.297,6.636,9.557,6.636h61.794v215.035c0,5.632,4.566,10.199,10.199,10.199
		h347.614c5.633,0,10.199-4.567,10.199-10.199V260.053H501.8c4.258,0,8.069-2.646,9.557-6.636
		C512.844,249.427,511.698,244.933,508.479,242.144z M188.475,464.162V290.727c0-37.234,30.293-67.527,67.527-67.527
		c37.234,0,67.527,30.293,67.527,67.527v173.435L188.475,464.162L188.475,464.162z M429.808,239.654
		c-5.633,0-10.199,4.567-10.199,10.199v215.036h-75.683V290.727c0-48.482-39.443-87.925-87.925-87.925s-87.925,39.443-87.925,87.925
		v174.162H92.393V249.853c0-5.632-4.566-10.199-10.199-10.199H37.55L256.001,50.406l218.451,189.248H429.808z"/>
	<path style="fill:#534741;" d="M287.32,321.351c-15.446,0-28.011,12.565-28.011,28.011c0,15.446,12.565,28.011,28.011,28.011
		c15.446,0,28.011-12.565,28.011-28.011C315.331,333.916,302.766,321.351,287.32,321.351z M287.32,356.974
		c-4.198,0-7.613-3.416-7.613-7.613c0-4.197,3.416-7.613,7.613-7.613c4.197,0,7.613,3.416,7.613,7.613
		C294.933,353.559,291.518,356.974,287.32,356.974z"/>
	<path style="fill:#534741;" d="M227.969,92.392l-4.79,4.08c-4.289,3.652-4.803,10.09-1.15,14.378
		c2.017,2.368,4.884,3.586,7.769,3.586c2.339,0,4.69-0.8,6.608-2.436l4.79-4.08c4.289-3.652,4.803-10.09,1.15-14.378
		C238.694,89.254,232.257,88.74,227.969,92.392z"/>
	<path style="fill:#534741;" d="M198.036,117.89L90.28,209.683c-4.288,3.652-4.803,10.09-1.149,14.378
		c2.017,2.368,4.884,3.586,7.769,3.586c2.339,0,4.69-0.8,6.609-2.436l107.756-91.793c4.288-3.652,4.803-10.09,1.149-14.378
		C208.762,114.752,202.324,114.237,198.036,117.89z"/>
</g>
</svg>